<svg version="1.1" id="Layer_1" xmlns="http://www.w3.org/2000/svg" x="0" y="0" viewBox="0 0 261.3 54.9" xml:space="preserve"><path d="M31.7 34.2c-.2-.2-.3-.3-.6-.3-.1 0-.4.2-.8.5s-1 .7-1.7 1.1-1.6.8-2.8 1.1c-1.1.3-2.5.5-4.1.5-1.8 0-3.4-.3-4.9-.8s-2.7-1.2-3.8-2.2-1.9-2.1-2.5-3.4-.9-2.7-.9-4.3c0-1.3.3-2.5.8-3.7s1.3-2.2 2.4-3.1c1-.9 2.3-1.6 3.7-2.1 1.5-.5 3.1-.8 4.9-.8 1.3 0 2.4.1 3.4.3s1.8.4 2.6.7c.7.3 1.3.5 1.8.7s.8.3 1 .3.3 0 .4-.1l.2-.2.5.3-2.4 4.1-.5-.2c.1-.1.2-.3.2-.5s-.2-.5-.6-.8-.9-.6-1.6-.9-1.4-.5-2.3-.8c-.9-.2-1.8-.3-2.8-.3s-2 .1-3.1.4c-1 .3-1.9.7-2.7 1.3s-1.5 1.4-2 2.3-.8 2.1-.8 3.4c0 1.1.3 2.2.8 3.1s1.2 1.8 2.1 2.4c.9.7 1.8 1.2 2.9 1.6s2.2.6 3.4.6c.9 0 1.8-.1 2.6-.4s1.6-.6 2.2-1 1.1-.8 1.5-1.2.6-.7.6-1c0-.2-.1-.4-.2-.5l.4-.3 2.8 3.6-.1.6zM52.2 8.5v38h-2.5v-38h2.5zm39.2 27.1c0 .3.1.5.2.7s.4.2.7.2v.5h-5v-.5c.4 0 .6-.1.7-.2.1-.2.2-.4.2-.7V28H74.8v7.6c0 .3.1.5.2.7s.4.2.7.2v.5h-5v-.5c.4 0 .6-.1.7-.2.1-.2.2-.4.2-.7V18.3c0-.3-.1-.5-.2-.7s-.4-.2-.7-.2v-.5h5v.5c-.4 0-.6.1-.7.2-.1.2-.2.4-.2.7v7.1h13.5v-7.1c0-.3-.1-.5-.2-.7s-.4-.2-.7-.2v-.5h5v.5c-.4 0-.6.1-.7.2-.1.2-.2.4-.2.7v17.3zm20.5-17.4c0-.3-.1-.5-.2-.7s-.4-.2-.7-.2v-.5h11.8c1.6 0 3 .2 4.2.7s2.3 1.2 3.2 2.1 1.6 1.9 2 3.2c.5 1.2.7 2.6.7 4s-.2 2.8-.6 4-1 2.3-1.8 3.2-1.8 1.6-3 2.1-2.5.7-4.1.7h-12.5v-.4c.4 0 .6-.1.7-.2.1-.2.2-.4.2-.7l.1-17.3zm11.3 16.3c2.2 0 3.9-.6 5-1.9s1.7-3.1 1.7-5.6-.6-4.3-1.9-5.6-3.1-1.9-5.5-1.9h-7.4v15h8.1zm16.7-16.3c0-.3-.1-.5-.2-.7s-.4-.2-.7-.2v-.5h15.9c.7 0 1.1-.1 1.3-.2s.3-.3.3-.6h.5v4.3h-.5c0-.3-.1-.6-.3-.8s-.6-.3-1.2-.3h-11.9v6h7.7c.5 0 .8-.1 1.1-.2s.4-.4.4-.8h.5v4.6h-.5c0-.4-.1-.6-.3-.8s-.6-.2-1.1-.2h-7.8v6.5h12.7c.5 0 .9-.1 1.2-.3s.4-.5.4-1h.5v4.5h-.5c0-.5-.4-.7-1.3-.7h-17v-.4c.4 0 .6-.1.7-.2.1-.2.2-.4.2-.7V18.2h-.1zm26 12.8c-.1.2-.1.3-.1.5 0 .4.2.7.7 1.1s1 .7 1.7 1 1.5.6 2.5.8c.9.2 1.8.3 2.8.3 2.4 0 4.1-.4 5.2-1.1s1.6-1.6 1.6-2.7c0-.5-.1-1-.4-1.3-.3-.4-.6-.6-1.1-.8s-1-.3-1.6-.4-1.3-.1-2-.1h-3.7c-1.3 0-2.5-.2-3.6-.5s-2-.8-2.7-1.6c-.7-.7-1.1-1.8-1.1-3.3 0-.9.3-1.7.8-2.5.5-.7 1.2-1.4 2.1-1.9s1.9-1 3.1-1.3 2.5-.5 3.9-.5c1.1 0 2 .1 2.8.2.8.2 1.5.3 2.1.5s1.1.3 1.4.5.7.2 1 .2.5 0 .6-.2.3-.2.4-.3l.5.2-2.1 4.4-.4-.3v-.5c0-.2-.2-.4-.5-.6-.3-.3-.7-.5-1.3-.7s-1.2-.4-2-.6-1.6-.2-2.5-.2c-2.1 0-3.7.3-4.9 1s-1.8 1.5-1.8 2.6c0 .5.1.9.4 1.2s.6.5 1.1.7 1 .3 1.6.3 1.3.1 2 .1c1.2 0 2.4 0 3.7.1s2.5.2 3.6.6 2 .9 2.7 1.7 1.1 1.9 1.1 3.5c0 .8-.2 1.6-.6 2.3s-1 1.4-1.9 2c-.8.6-1.9 1-3.1 1.4s-2.7.5-4.3.5c-1.4 0-2.6-.1-3.6-.3s-1.9-.5-2.6-.8-1.3-.6-1.7-.8c-.5-.2-.8-.4-1.1-.4s-.5.2-.8.5l-.4-.2 2.1-4.4.4.1zm24 5.5c.4 0 .6-.1.7-.2.1-.2.2-.4.2-.7V18.2c0-.3-.1-.5-.2-.7s-.4-.2-.7-.2v-.5h5v.5c-.4 0-.6.1-.7.2-.1.2-.2.4-.2.7v17.3c0 .3.1.5.2.7s.4.2.7.2v.6h-5v-.5zm25-7.1c-.9 0-1.3.3-1.3.8h-.5v-4.5h.5c0 .8.4 1.1 1.3 1.1h8.2v.5c-.3 0-.5.1-.6.2s-.1.4-.1.8v3.3c0 .4 0 .7.2.8.1.1.3.2.5.3v.5c-1.8 1.4-3.7 2.4-5.6 3s-3.7.8-5.3.8c-1.7 0-3.2-.2-4.6-.7s-2.6-1.1-3.7-2c-1-.9-1.8-1.9-2.4-3.1s-.9-2.6-.9-4c0-1.5.3-2.9.9-4.1.6-1.3 1.4-2.4 2.4-3.3s2.2-1.7 3.6-2.2 2.9-.8 4.5-.8 3 .1 4.1.4 2 .6 2.7.9 1.3.6 1.7.9.7.4.9.4.3 0 .4-.1.2-.2.2-.3l.5.3-2.7 3.9-.5-.3c.1-.1.2-.3.2-.5s-.2-.5-.6-.8-.9-.7-1.6-1-1.5-.6-2.4-.8-1.9-.3-3-.3c-1.4 0-2.6.2-3.7.6-1 .4-1.9 1-2.6 1.7s-1.2 1.5-1.5 2.4-.5 1.9-.5 2.9c0 1.2.2 2.3.7 3.3.4.9 1 1.7 1.7 2.4s1.6 1.1 2.5 1.5c.9.3 1.9.5 2.9.5 1.7 0 3.2-.2 4.5-.6s2.4-1 3.3-1.6v-2.9H215l-.1-.3zm33.2 2.5V18.2c0-.3-.1-.5-.2-.7s-.4-.2-.7-.2v-.5h4.6v.5c-.4 0-.6.1-.7.2-.1.2-.2.4-.2.7v17.3c0 .3.1.5.2.7s.4.2.7.2v.6h-4.9v-.5c.5 0 .8-.1.8-.3s-.1-.3-.2-.4-.2-.2-.2-.3l-13.5-15.4v15.5c0 .3.1.5.2.7s.4.2.7.2v.5H230v-.5c.4 0 .6-.1.7-.2.1-.2.2-.4.2-.7V18.3c0-.3-.1-.5-.2-.7s-.4-.2-.7-.2v-.5h6.4v.5c-.3 0-.5 0-.6.1s-.2.2-.2.3 0 .2.1.2c.1.1.1.2.2.2l12.2 13.7z"/></svg>